<svg width="12" height="12" viewBox="0 0 12 12" fill="none" xmlns="http://www.w3.org/2000/svg">
<path fill-rule="evenodd" clip-rule="evenodd" d="M1.64645 1.64645C1.84171 1.45118 2.15829 1.45118 2.35355 1.64645L6 5.29289L9.64645 1.64646C9.84171 1.45119 10.1583 1.4512 10.3536 1.64646C10.5488 1.84172 10.5488 2.1583 10.3536 2.35356L6.70711 6L10.3536 9.64644C10.5488 9.8417 10.5488 10.1583 10.3536 10.3535C10.1583 10.5488 9.84171 10.5488 9.64645 10.3535L6 6.70711L2.35355 10.3536C2.15829 10.5488 1.84171 10.5488 1.64645 10.3536C1.45118 10.1583 1.45118 9.84171 1.64645 9.64645L5.2929 6L1.64645 2.35355C1.45118 2.15829 1.45118 1.84171 1.64645 1.64645Z" fill="#91A5A7"/>
</svg>
